<svg width="772" height="232" viewBox="0 0 772 232" fill="none" xmlns="http://www.w3.org/2000/svg">
<path d="M10.3186 7.26994C7.12667 5.02106 8.71781 0 12.6224 0H382C384.209 0 386 1.79086 386 4V27C386 29.2091 384.209 31 382 31H45.2676C44.4427 31 43.6381 30.745 42.9638 30.2699L10.3186 7.26994Z" fill="#D9D9D9"/>
<path d="M136.346 63.7417C133.943 61.1891 135.753 57 139.259 57H382C384.209 57 386 58.7909 386 61V84C386 86.2091 384.209 88 382 88H160.909C159.807 88 158.753 87.5447 157.997 86.7417L136.346 63.7417Z" fill="#D9D9D9"/>
<path d="M206.223 120.242C204.426 117.585 206.329 114 209.536 114H382C384.209 114 386 115.791 386 118V141C386 143.209 384.209 145 382 145H225.097C223.77 145 222.528 144.341 221.784 143.241L206.223 120.242Z" fill="#D9D9D9"/>
<path d="M286.298 177.733C283.907 175.177 285.72 171 289.219 171H382C384.209 171 386 172.791 386 175V198C386 200.209 384.209 202 382 202H310.735C309.628 202 308.571 201.541 307.814 200.733L286.298 177.733Z" fill="#D9D9D9"/>
<path d="M761.683 223.793C764.874 226.042 763.282 231.063 759.378 231.063L390 231.001C387.791 231 386 229.209 386.001 227L386.005 204C386.005 201.791 387.796 200 390.005 200.001L726.738 200.057C727.562 200.057 728.367 200.312 729.041 200.788L761.683 223.793Z" fill="#D9D9D9"/>
<path d="M635.664 167.3C638.067 169.853 636.256 174.042 632.751 174.041L390.01 174.001C387.8 174 386.01 172.209 386.01 170L386.014 147C386.014 144.791 387.806 143 390.015 143.001L611.105 143.038C612.208 143.038 613.262 143.493 614.018 144.297L635.664 167.3Z" fill="#D9D9D9"/>
<path d="M565.797 110.789C567.594 113.445 565.69 117.03 562.483 117.03L390.019 117.001C387.81 117 386.019 115.209 386.02 113L386.024 90C386.024 87.7909 387.815 86.0003 390.024 86.0007L546.927 86.027C548.255 86.0272 549.496 86.6862 550.24 87.786L565.797 110.789Z" fill="#D9D9D9"/>
<path d="M485.731 53.2841C488.122 55.8402 486.309 60.0168 482.809 60.0162L390.029 60.0007C387.819 60.0003 386.029 58.2091 386.029 56L386.033 33C386.034 30.7909 387.825 29.0003 390.034 29.0007L461.298 29.0126C462.405 29.0128 463.463 29.4718 464.219 30.2805L485.731 53.2841Z" fill="#D9D9D9"/>
</svg>
