<svg width="772" height="232" viewBox="0 0 772 232" fill="none" xmlns="http://www.w3.org/2000/svg">
<path d="M0 0H386V31H44L0 0Z" fill="#D9D9D9"/>
<path d="M130 57H386V88H159.181L130 57Z" fill="#D9D9D9"/>
<path d="M202 114H386V145H222.974L202 114Z" fill="#D9D9D9"/>
<path d="M280 171H386V202H309L280 171Z" fill="#D9D9D9"/>
<path d="M772 231.065L386 231L386.005 200L728.005 200.057L772 231.065Z" fill="#D9D9D9"/>
<path d="M642.01 174.043L386.01 174L386.015 143L612.833 143.038L642.01 174.043Z" fill="#D9D9D9"/>
<path d="M570.019 117.031L386.019 117L386.024 86L549.05 86.0273L570.019 117.031Z" fill="#D9D9D9"/>
<path d="M492.029 60.0178L386.029 60L386.034 29L463.034 29.0129L492.029 60.0178Z" fill="#D9D9D9"/>
</svg>
